<svg xmlns="http://www.w3.org/2000/svg" viewBox="0 0 24 24">
  <path fill="#4caf50" d="M12 1L3 5v6c0 5.55 3.84 10.74 9 12 5.16-1.26 9-6.45 9-12V5l-9-4z"/>
  <g fill="#ffffff">
    <circle cx="12" cy="11.5" r="3.5"/>
    <path d="M12 8c-2.5 0-4-1.5-4-3s1.5-2 3-2 3 1 3 2.5M8.5 9.5c-2 0-3.5-1-3.5-2.5s1.5-2 3-2M15.5 9.5c2 0 3.5-1-3.5-2.5s-1.5-2-3-2" fill="none" stroke="#ffffff" stroke-width="1.2" stroke-linecap="round"/>
    <path d="M10 12.5a2 1.5 0 0 0 4 0" fill="none" stroke="#ffffff" stroke-width="0.8"/>
  </g>
</svg>